<?xml version="1.0" encoding="utf-8"?>
<!-- Generator: Adobe Illustrator 16.0.0, SVG Export Plug-In . SVG Version: 6.00 Build 0)  -->
<!DOCTYPE svg PUBLIC "-//W3C//DTD SVG 1.1//EN" "http://www.w3.org/Graphics/SVG/1.1/DTD/svg11.dtd">
<svg version="1.1" id="Layer_1" xmlns="http://www.w3.org/2000/svg" xmlns:xlink="http://www.w3.org/1999/xlink" x="0px" y="0px"
	 width="38px" height="24.309px" viewBox="0 0 38 24.309" enable-background="new 0 0 38 24.309" xml:space="preserve">
<g>
	<g>
		<g id="XMLID_4_">
			<g>
				<g id="XMLID_5_">
					<g>
						<g id="XMLID_6_">
							<linearGradient id="SVGID_1_" gradientUnits="userSpaceOnUse" x1="19.0005" y1="26.459" x2="19.0005" y2="-0.3554">
								<stop  offset="0.1182" style="stop-color:#526480"/>
								<stop  offset="1" style="stop-color:#8999B6"/>
							</linearGradient>
							<polygon fill="url(#SVGID_1_)" points="38,0 38,0.436 37.746,0.436 0.259,0.436 0,0.436 0,0 							"/>
							<linearGradient id="SVGID_2_" gradientUnits="userSpaceOnUse" x1="19.0029" y1="26.4639" x2="19.0029" y2="-0.3557">
								<stop  offset="0.1182" style="stop-color:#526480"/>
								<stop  offset="1" style="stop-color:#8999B6"/>
							</linearGradient>
							<polygon fill="url(#SVGID_2_)" points="37.746,0.436 35.415,2.771 35.415,1.652 6.391,1.652 2.584,1.652 2.584,2.771 
								0.259,0.436 							"/>
							<linearGradient id="SVGID_3_" gradientUnits="userSpaceOnUse" x1="36.707" y1="26.4619" x2="36.707" y2="-0.3552">
								<stop  offset="0.1182" style="stop-color:#526480"/>
								<stop  offset="1" style="stop-color:#8999B6"/>
							</linearGradient>
							<polygon fill="url(#SVGID_3_)" points="38,0.436 38,24.017 37.746,24.017 35.415,21.683 35.415,2.771 37.746,0.436 							
								"/>
							<linearGradient id="SVGID_4_" gradientUnits="userSpaceOnUse" x1="20.9023" y1="26.4619" x2="20.9023" y2="-0.3543">
								<stop  offset="0.1182" style="stop-color:#526480"/>
								<stop  offset="1" style="stop-color:#8999B6"/>
							</linearGradient>
							<polygon fill="url(#SVGID_4_)" points="35.415,1.652 35.415,2.771 25.972,12.229 23.907,10.16 31.61,2.449 6.391,2.449 
								6.391,1.652 							"/>
							<linearGradient id="SVGID_5_" gradientUnits="userSpaceOnUse" x1="23.9082" y1="26.4668" x2="23.9082" y2="-0.3568">
								<stop  offset="0.1182" style="stop-color:#526480"/>
								<stop  offset="1" style="stop-color:#8999B6"/>
							</linearGradient>
							<polygon fill="url(#SVGID_5_)" points="23.907,10.16 25.972,12.229 23.907,14.291 21.846,12.229 							"/>
							<linearGradient id="SVGID_6_" gradientUnits="userSpaceOnUse" x1="19.0005" y1="26.4648" x2="19.0005" y2="-0.3572">
								<stop  offset="0.1182" style="stop-color:#526480"/>
								<stop  offset="1" style="stop-color:#8999B6"/>
							</linearGradient>
							<polygon fill="url(#SVGID_6_)" points="23.907,14.291 18.999,19.205 14.093,14.291 16.15,12.229 18.999,15.076 
								21.846,12.229 							"/>
							<linearGradient id="SVGID_7_" gradientUnits="userSpaceOnUse" x1="14.0923" y1="26.4668" x2="14.0923" y2="-0.3568">
								<stop  offset="0.1182" style="stop-color:#526480"/>
								<stop  offset="1" style="stop-color:#8999B6"/>
							</linearGradient>
							<polygon fill="url(#SVGID_7_)" points="14.093,10.16 16.15,12.229 14.093,14.291 12.035,12.229 							"/>
							<linearGradient id="SVGID_8_" gradientUnits="userSpaceOnUse" x1="8.3389" y1="26.4619" x2="8.3389" y2="-0.3543">
								<stop  offset="0.1182" style="stop-color:#526480"/>
								<stop  offset="1" style="stop-color:#8999B6"/>
							</linearGradient>
							<polygon fill="url(#SVGID_8_)" points="6.391,2.449 14.093,10.16 12.035,12.229 2.584,2.771 2.584,1.652 6.391,1.652 							
								"/>
							<linearGradient id="SVGID_9_" gradientUnits="userSpaceOnUse" x1="20.9023" y1="26.4629" x2="20.9023" y2="-0.3558">
								<stop  offset="0.1182" style="stop-color:#526480"/>
								<stop  offset="1" style="stop-color:#8999B6"/>
							</linearGradient>
							<polygon fill="url(#SVGID_9_)" points="31.61,22.007 23.907,14.291 25.972,12.229 35.415,21.683 35.415,22.656 6.391,22.656 
								6.391,22.007 							"/>
							<linearGradient id="SVGID_10_" gradientUnits="userSpaceOnUse" x1="8.3389" y1="26.4629" x2="8.3389" y2="-0.3558">
								<stop  offset="0.1182" style="stop-color:#526480"/>
								<stop  offset="1" style="stop-color:#8999B6"/>
							</linearGradient>
							<polygon fill="url(#SVGID_10_)" points="14.093,14.291 6.391,22.007 6.391,22.656 2.584,22.656 2.584,21.683 12.035,12.229 
															"/>
							<linearGradient id="SVGID_11_" gradientUnits="userSpaceOnUse" x1="19.0029" y1="26.4619" x2="19.0029" y2="-0.3509">
								<stop  offset="0.1182" style="stop-color:#526480"/>
								<stop  offset="1" style="stop-color:#8999B6"/>
							</linearGradient>
							<polygon fill="url(#SVGID_11_)" points="37.746,24.017 0.259,24.017 2.584,21.683 2.584,22.656 6.391,22.656 35.415,22.656 
								35.415,21.683 							"/>
							<linearGradient id="SVGID_12_" gradientUnits="userSpaceOnUse" x1="19.0005" y1="26.4619" x2="19.0005" y2="-0.3506">
								<stop  offset="0.1182" style="stop-color:#526480"/>
								<stop  offset="1" style="stop-color:#8999B6"/>
							</linearGradient>
							<polygon fill="url(#SVGID_12_)" points="38,24.309 0,24.309 0,24.017 0.259,24.017 37.746,24.017 38,24.017 							"/>
							<linearGradient id="SVGID_13_" gradientUnits="userSpaceOnUse" x1="1.2925" y1="26.4619" x2="1.2925" y2="-0.3552">
								<stop  offset="0.1182" style="stop-color:#526480"/>
								<stop  offset="1" style="stop-color:#8999B6"/>
							</linearGradient>
							<polygon fill="url(#SVGID_13_)" points="2.584,2.771 2.584,21.683 0.259,24.017 0,24.017 0,0.436 0.259,0.436 							"/>
						</g>
					</g>
				</g>
			</g>
		</g>
	</g>
</g>
</svg>
