<?xml version="1.0" encoding="utf-8"?>
<!-- Generator: Adobe Illustrator 16.0.0, SVG Export Plug-In . SVG Version: 6.00 Build 0)  -->
<!DOCTYPE svg PUBLIC "-//W3C//DTD SVG 1.1//EN" "http://www.w3.org/Graphics/SVG/1.1/DTD/svg11.dtd">
<svg version="1.1" id="Layer_1" xmlns="http://www.w3.org/2000/svg" xmlns:xlink="http://www.w3.org/1999/xlink" x="0px" y="0px"
	 width="42px" height="42px" viewBox="0 0 42 42" enable-background="new 0 0 42 42" xml:space="preserve">
<rect x="0.938" y="8.47" fill="none" stroke="#0078FF" stroke-width="2" stroke-miterlimit="10" width="32.582" height="32.582"/>
<g>
	<path fill="#0078FF" stroke="#D6D6D6" stroke-width="0.25" stroke-miterlimit="10" d="M40.025,8.375
		c0.979-1.079,1.326-2.36,0.773-2.862L35.992,1.15c-0.555-0.503-1.799-0.034-2.777,1.044L30.52,5.162l6.812,6.182L40.025,8.375z"/>
	
		<rect x="24.258" y="25.041" transform="matrix(0.6722 -0.7404 0.7404 0.6722 -14.303 28.2721)" display="none" fill="#0078FF" stroke="#D6D6D6" stroke-width="0.25" stroke-miterlimit="10" width="1.03" height="10.492"/>
	<path fill="#0078FF" stroke="#D6D6D6" stroke-width="0.25" stroke-miterlimit="10" d="M13.276,31.018
		c0.154-0.078,2.656-1.32,5.251-2.61l-3.163-2.871C14.333,28.246,13.337,30.856,13.276,31.018z"/>
	<path fill="#0078FF" stroke="#D6D6D6" stroke-width="0.25" stroke-miterlimit="10" d="M20.072,21.113l12.533-13.81l-2.15-1.952
		c-0.213,0.235-12.06,13.291-12.536,13.811C19.448,18.724,20.359,19.551,20.072,21.113z"/>
	<path fill="#0078FF" stroke="#D6D6D6" stroke-width="0.25" stroke-miterlimit="10" d="M22.35,23.182l12.535-13.81l-2.152-1.952
		c-1.213,1.337-12.082,13.31-12.533,13.81c0.744-0.215,1.36-0.142,1.759,0.221C22.355,21.812,22.49,22.42,22.35,23.182z"/>
	<path fill="#0078FF" stroke="#D6D6D6" stroke-width="0.25" stroke-miterlimit="10" d="M22.18,23.62l-0.172,0.084l0.035-0.147
		c0.217-0.827,0.107-1.489-0.304-1.864c-0.415-0.374-1.082-0.418-1.884-0.123l-0.128,0.056l0.05-0.186
		c0.404-1.636-0.523-2.5-2.097-1.972c-0.217,0.569-1.203,3.159-2.186,5.737l3.352,3.043c2.473-1.231,4.953-2.461,5.498-2.732
		c0.182-0.775,0.066-1.399-0.33-1.757C23.611,23.394,22.963,23.344,22.18,23.62z"/>
	<path fill="#0078FF" stroke="#D6D6D6" stroke-width="0.25" stroke-miterlimit="10" d="M22.477,23.295
		c0.746-0.216,1.363-0.138,1.76,0.223c0.396,0.361,0.533,0.969,0.391,1.73l12.535-13.81L35.01,9.485L22.477,23.295z"/>
</g>
</svg>
