<?xml version="1.0" encoding="utf-8"?>
<!-- Generator: Adobe Illustrator 16.0.0, SVG Export Plug-In . SVG Version: 6.00 Build 0)  -->
<!DOCTYPE svg PUBLIC "-//W3C//DTD SVG 1.1//EN" "http://www.w3.org/Graphics/SVG/1.1/DTD/svg11.dtd">
<svg version="1.1" xmlns="http://www.w3.org/2000/svg" xmlns:xlink="http://www.w3.org/1999/xlink" x="0px" y="0px" width="38px"
	 height="38px" viewBox="0 0 38 38" enable-background="new 0 0 38 38" xml:space="preserve">
<g id="Layer_1">
	<g>
		<path fill="#010101" stroke="#020202" stroke-width="0.5" d="M24.222,23.972l10.306-10.306c3.074-3.077,3.198-7.935,0.271-10.862
			c-2.924-2.927-7.789-2.807-10.868,0.269L13.626,13.378L24.222,23.972z"/>
		<path fill="#C6C6C5" stroke="#010101" stroke-width="0.5" d="M13.776,13.227L3.474,23.532C0.394,26.609,0.276,31.47,3.203,34.4
			c2.923,2.92,7.786,2.801,10.862-0.275l10.307-10.308L13.776,13.227z"/>
	</g>
</g>
<g id="Layer_2">
	<path fill="#FFFFFF" d="M15.499,13.579l1.167,1.192l13.569-13.07c0,0-1.483-0.228-2.56,0.178
		C26.692,2.25,15.499,13.579,15.499,13.579z"/>
</g>
</svg>
