<svg width="42" height="42" xmlns="http://www.w3.org/2000/svg">
 <g>
  <title>Layer 1</title>
  <rect id="svg_1" height="32.582" width="32.582" stroke-miterlimit="10" stroke-width="2" stroke="#00008B" fill="none" y="8.47" x="0.938"/>
  <g id="svg_2">
   <path id="svg_3" d="m40.025002,8.375c0.979,-1.079 1.326,-2.36 0.772999,-2.862l-4.806,-4.363c-0.555,-0.503 -1.799,-0.034 -2.777,1.044l-2.695,2.968l6.812,6.182l2.693001,-2.969z" stroke-miterlimit="10" stroke-width="0.25" stroke="#D6D6D6" fill="#00008B"/>
   <rect id="svg_4" height="10.492" width="1.03" stroke-miterlimit="10" stroke-width="0.25" stroke="#D6D6D6" fill="#777" transform="matrix(0.6722 -0.7404 0.7404 0.6722 -14.303 28.2721)" y="25.041" x="24.258"/>
   <path id="svg_5" d="m13.276,31.018c0.154,-0.077999 2.656,-1.32 5.251,-2.609999l-3.163,-2.871c-1.031,2.709 -2.027,5.319 -2.088,5.480999z" stroke-miterlimit="10" stroke-width="0.25" stroke="#D6D6D6" fill="#00008B"/>
   <path id="svg_6" d="m20.072001,21.113001l12.532999,-13.810001l-2.15,-1.952c-0.212999,0.235 -12.059999,13.291 -12.535999,13.811001c1.528999,-0.438002 2.439999,0.389 2.153,1.951z" stroke-miterlimit="10" stroke-width="0.25" stroke="#D6D6D6" fill="#00008B"/>
   <path id="svg_7" d="m22.35,23.181999l12.534998,-13.809999l-2.151997,-1.952c-1.213001,1.337 -12.082001,13.309999 -12.533001,13.809999c0.743999,-0.215 1.359999,-0.142 1.758999,0.221001c0.396,0.361 0.531,0.969 0.391001,1.730999z" stroke-miterlimit="10" stroke-width="0.25" stroke="#D6D6D6" fill="#00008B"/>
   <path id="svg_8" d="m22.18,23.620001l-0.172001,0.084l0.035,-0.147001c0.217001,-0.827 0.107,-1.488998 -0.303999,-1.863998c-0.415001,-0.374001 -1.082001,-0.418001 -1.884001,-0.123001l-0.128,0.056l0.050001,-0.185999c0.403999,-1.636 -0.523001,-2.5 -2.097,-1.972c-0.217001,0.569 -1.203001,3.159 -2.186,5.737l3.352,3.042999c2.473,-1.230999 4.952999,-2.460999 5.497999,-2.731998c0.181999,-0.775002 0.066,-1.399 -0.33,-1.757c-0.403,-0.365002 -1.051001,-0.415001 -1.834,-0.139z" stroke-miterlimit="10" stroke-width="0.25" stroke="#D6D6D6" fill="#00008B"/>
   <path id="svg_9" d="m22.476999,23.295c0.746,-0.216 1.363001,-0.138 1.76,0.223c0.396,0.361 0.533001,0.969 0.391001,1.73l12.534998,-13.809999l-2.153,-1.953l-12.532999,13.81z" stroke-miterlimit="10" stroke-width="0.25" stroke="#D6D6D6" fill="#00008B"/>
  </g>
 </g>
</svg>